<svg width="15" height="22" viewBox="0 0 15 22" fill="none" xmlns="http://www.w3.org/2000/svg">
<path fill-rule="evenodd" clip-rule="evenodd" d="M7.5 1.95117C4.65729 1.95117 1.75 4.3809 1.75 8.09772C1.75 10.8796 2.88582 13.5888 4.22797 15.8085C5.43645 17.8072 6.77928 19.3552 7.5 20.1265C8.22072 19.3552 9.56355 17.8072 10.772 15.8085C12.1142 13.5888 13.25 10.8796 13.25 8.09772C13.25 4.3809 10.3427 1.95117 7.5 1.95117ZM0.25 8.09772C0.25 3.53869 3.84271 0.451172 7.5 0.451172C11.1573 0.451172 14.75 3.53869 14.75 8.09772C14.75 11.2674 13.4655 14.2529 12.0556 16.5846C10.6405 18.9251 9.05812 20.674 8.37312 21.3858C7.89281 21.8849 7.10719 21.8849 6.62688 21.3858C5.94188 20.674 4.3595 18.9251 2.94436 16.5846C1.53452 14.2529 0.25 11.2674 0.25 8.09772Z" fill="url(#paint0_linear_32_1558)"/>
<path fill-rule="evenodd" clip-rule="evenodd" d="M7.5 6.42969C6.5335 6.42969 5.75 7.21319 5.75 8.17969C5.75 9.14619 6.5335 9.92969 7.5 9.92969C8.4665 9.92969 9.25 9.14619 9.25 8.17969C9.25 7.21319 8.4665 6.42969 7.5 6.42969ZM4.25 8.17969C4.25 6.38476 5.70507 4.92969 7.5 4.92969C9.29493 4.92969 10.75 6.38476 10.75 8.17969C10.75 9.97461 9.29493 11.4297 7.5 11.4297C5.70507 11.4297 4.25 9.97461 4.25 8.17969Z" fill="url(#paint1_linear_32_1558)"/>
<defs>
<linearGradient id="paint0_linear_32_1558" x1="0.25" y1="21.7601" x2="15.4374" y2="21.2584" gradientUnits="userSpaceOnUse">
<stop stop-color="#9914B3"/>
<stop offset="1" stop-color="#7023BC"/>
</linearGradient>
<linearGradient id="paint1_linear_32_1558" x1="4.25" y1="11.4297" x2="11.0495" y2="11.0996" gradientUnits="userSpaceOnUse">
<stop stop-color="#9914B3"/>
<stop offset="1" stop-color="#7023BC"/>
</linearGradient>
</defs>
</svg>
